<svg xmlns="http://www.w3.org/2000/svg" xmlns:xlink="http://www.w3.org/1999/xlink" contentStyleType="text/css" height="657px" preserveAspectRatio="none" style="width:574px;height:657px;background:#FFFFFF;" version="1.1" viewBox="0 0 574 657" width="574px" zoomAndPan="magnify"><defs/><g><!--class Usuario--><g id="elem_Usuario"><rect codeLine="4" fill="#F1F1F1" height="26.2969" id="Usuario" rx="2.5" ry="2.5" style="stroke:#181818;stroke-width:0.5;" width="59.2041" x="298" y="7"/><text fill="#000000" font-family="sans-serif" font-size="14" lengthAdjust="spacing" textLength="53.2041" x="301" y="24.9951">Usuario</text></g><!--class Condiciones--><g id="elem_Condiciones"><rect codeLine="7" fill="#F1F1F1" height="26.2969" id="Condiciones" rx="2.5" ry="2.5" style="stroke:#181818;stroke-width:0.5;" width="90.9229" x="7" y="110"/><text fill="#000000" font-family="sans-serif" font-size="14" lengthAdjust="spacing" textLength="84.9229" x="10" y="127.9951">Condiciones</text></g><!--class Dispositivo--><g id="elem_Dispositivo"><rect codeLine="10" fill="#F1F1F1" height="26.2969" id="Dispositivo" rx="2.5" ry="2.5" style="stroke:#181818;stroke-width:0.5;" width="82.8291" x="133" y="110"/><text fill="#000000" font-family="sans-serif" font-size="14" lengthAdjust="spacing" textLength="76.8291" x="136" y="127.9951">Dispositivo</text></g><!--class CreadorDeContenido--><g id="elem_CreadorDeContenido"><rect codeLine="13" fill="#F1F1F1" height="26.2969" id="CreadorDeContenido" rx="2.5" ry="2.5" style="stroke:#181818;stroke-width:0.5;" width="152.8564" x="251" y="110"/><text fill="#000000" font-family="sans-serif" font-size="14" lengthAdjust="spacing" textLength="146.8564" x="254" y="127.9951">CreadorDeContenido</text></g><!--class Viewer--><g id="elem_Viewer"><rect codeLine="16" fill="#F1F1F1" height="26.2969" id="Viewer" rx="2.5" ry="2.5" style="stroke:#181818;stroke-width:0.5;" width="53.8994" x="416.5" y="213"/><text fill="#000000" font-family="sans-serif" font-size="14" lengthAdjust="spacing" textLength="47.8994" x="419.5" y="230.9951">Viewer</text></g><!--class Subscripcion--><g id="elem_Subscripcion"><rect codeLine="19" fill="#F1F1F1" height="26.2969" id="Subscripcion" rx="2.5" ry="2.5" style="stroke:#181818;stroke-width:0.5;" width="95.1953" x="396" y="316"/><text fill="#000000" font-family="sans-serif" font-size="14" lengthAdjust="spacing" textLength="89.1953" x="399" y="333.9951">Subscripcion</text></g><!--class Categoria--><g id="elem_Categoria"><rect codeLine="22" fill="#F1F1F1" height="26.2969" id="Categoria" rx="2.5" ry="2.5" style="stroke:#181818;stroke-width:0.5;" width="74.1338" x="319.5" y="522"/><text fill="#000000" font-family="sans-serif" font-size="14" lengthAdjust="spacing" textLength="68.1338" x="322.5" y="539.9951">Categoria</text></g><!--class Recomendacion--><g id="elem_Recomendacion"><rect codeLine="25" fill="#F1F1F1" height="26.2969" id="Recomendacion" rx="2.5" ry="2.5" style="stroke:#181818;stroke-width:0.5;" width="118.2188" x="382.5" y="419"/><text fill="#000000" font-family="sans-serif" font-size="14" lengthAdjust="spacing" textLength="112.2188" x="385.5" y="436.9951">Recomendacion</text></g><!--class Contenido--><g id="elem_Contenido"><rect codeLine="28" fill="#F1F1F1" height="26.2969" id="Contenido" rx="2.5" ry="2.5" style="stroke:#181818;stroke-width:0.5;" width="77.5313" x="317.5" y="625"/><text fill="#000000" font-family="sans-serif" font-size="14" lengthAdjust="spacing" textLength="71.5313" x="320.5" y="642.9951">Contenido</text></g><!--class Perfil--><g id="elem_Perfil"><rect fill="#F1F1F1" height="26.2969" id="Perfil" rx="2.5" ry="2.5" style="stroke:#181818;stroke-width:0.5;" width="41.5195" x="525.5" y="110"/><text fill="#000000" font-family="sans-serif" font-size="14" lengthAdjust="spacing" textLength="35.5195" x="528.5" y="127.9951">Perfil</text></g><!--link Usuario to Dispositivo--><g id="link_Usuario_Dispositivo"><path codeLine="31" d="M309.04,33.18 C279.64,52.6 227.4774,87.0246 198.0274,106.4646 " fill="none" id="Usuario-to-Dispositivo" style="stroke:#181818;stroke-width:1.0;"/><polygon fill="#181818" points="193.02,109.77,202.7347,108.1502,197.1929,107.0155,198.3275,101.4736,193.02,109.77" style="stroke:#181818;stroke-width:1.0;"/><text fill="#000000" font-family="sans-serif" font-size="13" lengthAdjust="spacing" textLength="22.9785" x="261.5" y="76.0669">usa</text></g><!--link Usuario to Condiciones--><g id="link_Usuario_Condiciones"><path codeLine="32" d="M297.89,28.87 C269.52,36.67 225.66,49.38 188.5,63 C149.35,77.35 110.7292,94.6372 83.6492,107.2472 " fill="none" id="Usuario-to-Condiciones" style="stroke:#181818;stroke-width:1.0;"/><polygon fill="#181818" points="78.21,109.78,88.0573,109.6069,82.7427,107.6693,84.6803,102.3547,78.21,109.78" style="stroke:#181818;stroke-width:1.0;"/><text fill="#000000" font-family="sans-serif" font-size="13" lengthAdjust="spacing" textLength="44.4272" x="189.5" y="76.0669">acepta</text></g><!--link Usuario to Perfil--><g id="link_Usuario_Perfil"><path codeLine="33" d="M357.05,22.31 C393.46,25.17 455.97,34.25 500.5,63 C518.61,74.7 529.6524,90.7927 537.2324,104.3527 " fill="none" id="Usuario-to-Perfil" style="stroke:#181818;stroke-width:1.0;"/><polygon fill="#181818" points="540.16,109.59,539.2601,99.7823,537.7203,105.2256,532.2771,103.6858,540.16,109.59" style="stroke:#181818;stroke-width:1.0;"/><text fill="#000000" font-family="sans-serif" font-size="13" lengthAdjust="spacing" textLength="32.9443" x="519.5" y="76.0669">tiene</text></g><!--link Usuario to CreadorDeContenido--><g id="link_Usuario_CreadorDeContenido"><path codeLine="34" d="M327.5,33.38 C327.5,52.87 327.5,72.47 327.5,91.83 " fill="none" id="Usuario-to-CreadorDeContenido" style="stroke:#181818;stroke-width:1.0;"/><polygon fill="none" points="327.5,109.83,333.5,91.83,321.5,91.83,327.5,109.83" style="stroke:#181818;stroke-width:1.0;"/><text fill="#000000" font-family="sans-serif" font-size="13" lengthAdjust="spacing" textLength="64.9873" x="328.5" y="76.0669">puede ser</text></g><!--link Usuario to Viewer--><g id="link_Usuario_Viewer"><path codeLine="35" d="M357.24,32.42 C372.13,39.38 389.5,49.55 401.5,63 C440.76,107.01 444.3402,165.0908 444.0602,194.7008 " fill="none" id="Usuario-to-Viewer" style="stroke:#181818;stroke-width:1.0;"/><polygon fill="none" points="443.89,212.7,450.0599,194.7575,438.0605,194.6441,443.89,212.7" style="stroke:#181818;stroke-width:1.0;"/><text fill="#000000" font-family="sans-serif" font-size="13" lengthAdjust="spacing" textLength="14.771" x="437.5" y="127.5669">es</text></g><!--link CreadorDeContenido to Viewer--><g id="link_CreadorDeContenido_Viewer"><path codeLine="36" d="M341.72,136.38 C364.11,155.87 402.7653,189.5295 424.9953,208.8895 " fill="none" id="CreadorDeContenido-to-Viewer" style="stroke:#181818;stroke-width:1.0;"/><polygon fill="#181818" points="429.52,212.83,425.36,203.9028,425.7495,209.5463,420.106,209.9357,429.52,212.83" style="stroke:#181818;stroke-width:1.0;"/><text fill="#000000" font-family="sans-serif" font-size="13" lengthAdjust="spacing" textLength="14.771" x="393.5" y="179.0669">es</text></g><!--link CreadorDeContenido to Categoria--><g id="link_CreadorDeContenido_Categoria"><path codeLine="37" d="M327.5,136.13 C327.5,155.09 327.5,192.91 327.5,225 C327.5,225 327.5,225 327.5,433 C327.5,466.2 339.6778,497.7775 348.1478,516.4175 " fill="none" id="CreadorDeContenido-to-Categoria" style="stroke:#181818;stroke-width:1.0;"/><polygon fill="#181818" points="350.63,521.88,350.5484,512.0315,348.5615,517.3279,343.2651,515.341,350.63,521.88" style="stroke:#181818;stroke-width:1.0;"/><text fill="#000000" font-family="sans-serif" font-size="13" lengthAdjust="spacing" textLength="31.3511" x="328.5" y="333.5669">hace</text></g><!--link Viewer to Subscripcion--><g id="link_Viewer_Subscripcion"><path codeLine="38" d="M443.5,239.38 C443.5,258.87 443.5,296.47 443.5,315.83 " fill="none" id="Viewer-Subscripcion" style="stroke:#181818;stroke-width:1.0;"/><text fill="#000000" font-family="sans-serif" font-size="13" lengthAdjust="spacing" textLength="32.9443" x="444.5" y="282.0669">tiene</text></g><!--reverse link Categoria to Contenido--><g id="link_Categoria_Contenido"><path codeLine="39" d="M356.5,554.38 C356.5,573.87 356.5,605.47 356.5,624.83 " fill="none" id="Categoria-backto-Contenido" style="stroke:#181818;stroke-width:1.0;"/><polygon fill="#181818" points="356.5,548.38,352.5,557.38,356.5,553.38,360.5,557.38,356.5,548.38" style="stroke:#181818;stroke-width:1.0;"/><text fill="#000000" font-family="sans-serif" font-size="13" lengthAdjust="spacing" textLength="66.0728" x="357.5" y="591.0669">pertenece</text></g><!--link Subscripcion to Recomendacion--><g id="link_Subscripcion_Recomendacion"><path codeLine="40" d="M443.25,342.38 C442.87,361.87 442.2377,393.4712 441.8577,412.8312 " fill="none" id="Subscripcion-to-Recomendacion" style="stroke:#181818;stroke-width:1.0;"/><polygon fill="#181818" points="441.74,418.83,445.9158,409.9102,441.8381,413.831,437.9174,409.7532,441.74,418.83" style="stroke:#181818;stroke-width:1.0;"/><text fill="#000000" font-family="sans-serif" font-size="13" lengthAdjust="spacing" textLength="62.8418" x="444.5" y="385.0669">establece</text></g><!--link Recomendacion to Categoria--><g id="link_Recomendacion_Categoria"><path codeLine="41" d="M431.08,445.38 C414.67,464.87 386.893,497.879 370.603,517.239 " fill="none" id="Recomendacion-to-Categoria" style="stroke:#181818;stroke-width:1.0;"/><polygon fill="#181818" points="366.74,521.83,375.5952,517.5188,369.9592,518.0042,369.4738,512.3682,366.74,521.83" style="stroke:#181818;stroke-width:1.0;"/><text fill="#000000" font-family="sans-serif" font-size="13" lengthAdjust="spacing" textLength="36.3213" x="405.5" y="488.0669">sobre</text></g><!--SRC=[ZL11JiGm3Bpd5Vb0Fn2XlR0FG22ufyb0BRL9PQSWnExVIQJk4iCUk5apOtjc9egmWJZCC5ERiQpbqovOHh0O4sOlOfzbyqpPVfdp1RhFALAWd20zV2HPir2XTwrc-9ZvYBfMa2WgzeNm0UwHfssKmBIs1-gEBtZBJBu77n7oWXJz7xL-Taan30VbqzbDl6BxSCxwWBLemGFubURA5K92HvqEjx8wkswevGfOQ_VapaBCZRtswX-IQolEJjMisLU6GVMucxNcfyIxAhcUgYR1TKIzeFflBrJ7pKlnuzoKklnVRYIFZ6y0]--></g></svg>