<svg xmlns="http://www.w3.org/2000/svg" xmlns:xlink="http://www.w3.org/1999/xlink" contentStyleType="text/css" height="389px" preserveAspectRatio="none" style="width:857px;height:389px;background:#FFFFFF;" version="1.1" viewBox="0 0 857 389" width="857px" zoomAndPan="magnify"><defs/><g><path d="M19.5,7 L831.0195,7 A12.5,12.5 0 0 1 843.5195,19.5 L843.5195,33.2969 L7,33.2969 L7,19.5 A12.5,12.5 0 0 1 19.5,7 " fill="#F1F1F1" style="stroke:#F1F1F1;stroke-width:1.0;"/><rect fill="none" height="376.2969" rx="12.5" ry="12.5" style="stroke:#181818;stroke-width:0.5;" width="836.5195" x="7" y="7"/><line style="stroke:#181818;stroke-width:0.5;" x1="7" x2="843.5195" y1="33.2969" y2="33.2969"/><text fill="#000000" font-family="sans-serif" font-size="14" lengthAdjust="spacing" textLength="112.2188" x="369.1504" y="24.9951">Recomendacion</text><ellipse cx="96" cy="54.2969" fill="#222222" rx="10" ry="10" style="stroke:#222222;stroke-width:1.0;"/><g id="Recomendacion.SinRecomendacion"><rect fill="#F1F1F1" height="50" rx="12.5" ry="12.5" style="stroke:#181818;stroke-width:0.5;" width="153.8682" x="19" y="117.2969"/><line style="stroke:#181818;stroke-width:0.5;" x1="19" x2="172.8682" y1="143.5938" y2="143.5938"/><text fill="#000000" font-family="sans-serif" font-size="14" lengthAdjust="spacing" textLength="133.8682" x="29" y="135.292">SinRecomendacion</text></g><g id="elem_rombo"><polygon fill="#F1F1F1" points="302,130.2969,314,142.2969,302,154.2969,290,142.2969,302,130.2969" style="stroke:#181818;stroke-width:0.5;"/></g><g id="Recomendacion.Recomienda"><rect fill="#F1F1F1" height="50" rx="12.5" ry="12.5" style="stroke:#181818;stroke-width:0.5;" width="107.083" x="475.5" y="117.2969"/><line style="stroke:#181818;stroke-width:0.5;" x1="475.5" x2="582.583" y1="143.5938" y2="143.5938"/><text fill="#000000" font-family="sans-serif" font-size="14" lengthAdjust="spacing" textLength="87.083" x="485.5" y="135.292">Recomienda</text></g><g id="Recomendacion.NoHayDatos"><rect fill="#F1F1F1" height="50" rx="12.5" ry="12.5" style="stroke:#181818;stroke-width:0.5;" width="107.1377" x="350.5" y="117.2969"/><line style="stroke:#181818;stroke-width:0.5;" x1="350.5" x2="457.6377" y1="143.5938" y2="143.5938"/><text fill="#000000" font-family="sans-serif" font-size="14" lengthAdjust="spacing" textLength="87.1377" x="360.5" y="135.292">NoHayDatos</text></g><g id="Recomendacion.AnalisisPreferencias"><rect fill="#F1F1F1" height="50" rx="12.5" ry="12.5" style="stroke:#181818;stroke-width:0.5;" width="160.3418" x="449" y="220.2969"/><line style="stroke:#181818;stroke-width:0.5;" x1="449" x2="609.3418" y1="246.5938" y2="246.5938"/><text fill="#000000" font-family="sans-serif" font-size="14" lengthAdjust="spacing" textLength="140.3418" x="459" y="238.292">AnalisisPreferencias</text></g><g id="Recomendacion.Categoria"><rect fill="#F1F1F1" height="50" rx="12.5" ry="12.5" style="stroke:#181818;stroke-width:0.5;" width="88.1338" x="485" y="323.2969"/><line style="stroke:#181818;stroke-width:0.5;" x1="485" x2="573.1338" y1="349.5938" y2="349.5938"/><text fill="#000000" font-family="sans-serif" font-size="14" lengthAdjust="spacing" textLength="68.1338" x="495" y="341.292">Categoria</text></g><g id="Recomendacion.SolicitarInformacion"><rect fill="#F1F1F1" height="50" rx="12.5" ry="12.5" style="stroke:#181818;stroke-width:0.5;" width="160.1367" x="198" y="220.2969"/><line style="stroke:#181818;stroke-width:0.5;" x1="198" x2="358.1367" y1="246.5938" y2="246.5938"/><text fill="#000000" font-family="sans-serif" font-size="14" lengthAdjust="spacing" textLength="140.1367" x="208" y="238.292">SolicitarInformacion</text></g><ellipse cx="731" cy="348.2969" fill="none" rx="11" ry="11" style="stroke:#222222;stroke-width:1.0;"/><ellipse cx="731" cy="348.2969" fill="#222222" rx="6" ry="6" style="stroke:#222222;stroke-width:1.0;"/><!--link *start*Recomendacion to SinRecomendacion--><g id="link_*start*Recomendacion_SinRecomendacion"><path d="M96,64.4969 C96,76.9769 96,93.7169 96,111.2269 " fill="none" id="*start*Recomendacion-to-SinRecomendacion" style="stroke:#181818;stroke-width:1.0;"/><polygon fill="#181818" points="96,117.2269,100,108.2269,96,112.2269,92,108.2269,96,117.2269" style="stroke:#181818;stroke-width:1.0;"/><text fill="#000000" font-family="sans-serif" font-size="13" lengthAdjust="spacing" textLength="228.3633" x="97" y="95.3638">Usuario registrado sin subscripci&#243;n</text></g><!--link SinRecomendacion to rombo--><g id="link_SinRecomendacion_rombo"><path d="M173.29,142.2969 C216.9,142.2969 261.09,142.2969 283.76,142.2969 " fill="none" id="SinRecomendacion-to-rombo" style="stroke:#181818;stroke-width:1.0;"/><polygon fill="#181818" points="289.76,142.2969,280.76,138.2969,284.76,142.2969,280.76,146.2969,289.76,142.2969" style="stroke:#181818;stroke-width:1.0;"/><text fill="#000000" font-family="sans-serif" font-size="13" lengthAdjust="spacing" textLength="97.2905" x="183" y="135.3638">Si se subscribe</text></g><!--link rombo to Recomienda--><g id="link_rombo_Recomienda"><path d="M308.88,136.7869 C323.87,125.2069 361.07,98.6869 397.5,90.2969 C432.43,82.2469 465.2627,97.0218 491.3427,114.0118 " fill="none" id="rombo-to-Recomienda" style="stroke:#181818;stroke-width:1.0;"/><polygon fill="#181818" points="496.37,117.2869,491.0124,109.0227,492.1806,114.5576,486.6456,115.7258,496.37,117.2869" style="stroke:#181818;stroke-width:1.0;"/><text fill="#000000" font-family="sans-serif" font-size="13" lengthAdjust="spacing" textLength="11.8638" x="398.5" y="95.3638">Si</text></g><!--link rombo to NoHayDatos--><g id="link_rombo_NoHayDatos"><path d="M314.1,142.2969 C323.28,142.2969 330.61,142.2969 344.2,142.2969 " fill="none" id="rombo-to-NoHayDatos" style="stroke:#181818;stroke-width:1.0;"/><polygon fill="#181818" points="350.2,142.2969,341.2,138.2969,345.2,142.2969,341.2,146.2969,350.2,142.2969" style="stroke:#181818;stroke-width:1.0;"/><text fill="#000000" font-family="sans-serif" font-size="13" lengthAdjust="spacing" textLength="17.6782" x="323.75" y="135.3638">No</text></g><!--link Recomienda to AnalisisPreferencias--><g id="link_Recomienda_AnalisisPreferencias"><path d="M529,167.4869 C529,183.3669 529,198.0469 529,213.9569 " fill="none" id="Recomienda-to-AnalisisPreferencias" style="stroke:#181818;stroke-width:1.0;"/><polygon fill="#181818" points="529,219.9569,533,210.9569,529,214.9569,525,210.9569,529,219.9569" style="stroke:#181818;stroke-width:1.0;"/><text fill="#000000" font-family="sans-serif" font-size="13" lengthAdjust="spacing" textLength="165.2739" x="530" y="198.3638">Analizar datos de usuario</text></g><!--link AnalisisPreferencias to Categoria--><g id="link_AnalisisPreferencias_Categoria"><path d="M529,270.4869 C529,286.3669 529,301.0469 529,316.9569 " fill="none" id="AnalisisPreferencias-to-Categoria" style="stroke:#181818;stroke-width:1.0;"/><polygon fill="#181818" points="529,322.9569,533,313.9569,529,317.9569,525,313.9569,529,322.9569" style="stroke:#181818;stroke-width:1.0;"/><text fill="#000000" font-family="sans-serif" font-size="13" lengthAdjust="spacing" textLength="303.5195" x="530" y="301.3638">Generar recomendaciones basadas en an&#225;lisis</text></g><!--link NoHayDatos to SolicitarInformacion--><g id="link_NoHayDatos_SolicitarInformacion"><path d="M373.82,167.4869 C354.02,183.3669 332.8908,200.2932 313.0508,216.2032 " fill="none" id="NoHayDatos-to-SolicitarInformacion" style="stroke:#181818;stroke-width:1.0;"/><polygon fill="#181818" points="308.37,219.9569,317.8937,217.447,312.2707,216.8288,312.8888,211.2059,308.37,219.9569" style="stroke:#181818;stroke-width:1.0;"/><text fill="#000000" font-family="sans-serif" font-size="13" lengthAdjust="spacing" textLength="141.1909" x="349" y="198.3638">Pedir datos al usuario</text></g><!--link SolicitarInformacion to SinRecomendacion--><g id="link_SolicitarInformacion_SinRecomendacion"><path d="M227.28,220.1469 C215.91,214.4769 203.96,208.3269 193,202.2969 C173.14,191.3769 156.6483,181.5203 138.8883,170.5003 " fill="none" id="SolicitarInformacion-to-SinRecomendacion" style="stroke:#181818;stroke-width:1.0;"/><polygon fill="#181818" points="133.79,167.3369,139.3285,175.4809,138.0386,169.9731,143.5464,168.6832,133.79,167.3369" style="stroke:#181818;stroke-width:1.0;"/><text fill="#000000" font-family="sans-serif" font-size="13" lengthAdjust="spacing" textLength="134.4751" x="194" y="198.3638">Sin datos suficientes</text></g><!--link Categoria to *end*Recomendacion--><g id="link_Categoria_*end*Recomendacion"><path d="M573.33,348.2969 C620.71,348.2969 686.7,348.2969 713.99,348.2969 " fill="none" id="Categoria-to-*end*Recomendacion" style="stroke:#181818;stroke-width:1.0;"/><polygon fill="#181818" points="719.99,348.2969,710.99,344.2969,714.99,348.2969,710.99,352.2969,719.99,348.2969" style="stroke:#181818;stroke-width:1.0;"/><text fill="#000000" font-family="sans-serif" font-size="13" lengthAdjust="spacing" textLength="127.6641" x="583" y="341.3638">Fin Recomendacion</text></g><!--SRC=[TP5FIiL038VtFKNMGYzGIa4K_smU3yMLk4YdwJFGJYHf5oeUnZDuX7Snqwd55fymgycNR_ARs803mHq5wIas65WYl6S0ZsTFaESLt7FS5Wjui16L1PGER8DY8s0SmSRQWl9BuEDNT8CVItALlXOeo_0i7AYgCg_yqURgZyrauLKmMeGrEPzWdcWe7LsJNjt93RvUuY2shUu4ictp5EayOiV6jbTgIIa6HdCuNR-XGfD43S4u1tN3oPR9TU413wACBhYcIEhzkWv61ZKQDivJ18p7poJAjbEddvQE0m-ejx4LxPVVtbF3oqpOhMOwoV-pCh_wKTZOUXV5WMpUqM-2j89fxmLSERznP1_V]--></g></svg>