<svg xmlns="http://www.w3.org/2000/svg" xmlns:xlink="http://www.w3.org/1999/xlink" contentStyleType="text/css" height="519px" preserveAspectRatio="none" style="width:1301px;height:519px;background:#FFFFFF;" version="1.1" viewBox="0 0 1301 519" width="1301px" zoomAndPan="magnify"><defs/><g><g id="elem_Dispositivo1"><rect fill="#F1F1F1" height="20.2969" style="stroke:#181818;stroke-width:0.5;" width="179.3818" x="85.19" y="201"/><text fill="#000000" font-family="sans-serif" font-size="14" lengthAdjust="spacing" textLength="165.3818" x="92.19" y="215.9951">Ordenador : Dispositivo</text></g><g id="elem_Perfil1"><rect fill="#F1F1F1" height="20.2969" style="stroke:#181818;stroke-width:0.5;" width="88.6211" x="90.19" y="395"/><text fill="#000000" font-family="sans-serif" font-size="14" lengthAdjust="spacing" textLength="74.6211" x="97.19" y="409.9951">Ibai : Perfil</text></g><g id="elem_Condiciones1"><rect fill="#F1F1F1" height="20.2969" style="stroke:#181818;stroke-width:0.5;" width="324.4678" x="214.69" y="395"/><text fill="#000000" font-family="sans-serif" font-size="14" lengthAdjust="spacing" textLength="310.4678" x="221.69" y="409.9951">Gesti&#243;n de Derechos Digitales : Condiciones</text></g><g id="elem_CreadorDeContenido"><rect fill="#F1F1F1" height="20.2969" style="stroke:#181818;stroke-width:0.5;" width="249.4092" x="50.19" y="298"/><text fill="#000000" font-family="sans-serif" font-size="14" lengthAdjust="spacing" textLength="235.4092" x="57.19" y="312.9951">Ibai Llanos : CreadorDeContenido</text></g><g id="elem_Dispositivo2"><rect fill="#F1F1F1" height="20.2969" style="stroke:#181818;stroke-width:0.5;" width="148.4561" x="717.69" y="7"/><text fill="#000000" font-family="sans-serif" font-size="14" lengthAdjust="spacing" textLength="134.4561" x="724.69" y="21.9951">Tablet : Dispositivo</text></g><g id="elem_Perfil2"><rect fill="#F1F1F1" height="20.2969" style="stroke:#181818;stroke-width:0.5;" width="104.6924" x="893.19" y="201"/><text fill="#000000" font-family="sans-serif" font-size="14" lengthAdjust="spacing" textLength="90.6924" x="900.19" y="215.9951">celiab : Perfil</text></g><g id="elem_Condiciones2"><rect fill="#F1F1F1" height="20.2969" style="stroke:#181818;stroke-width:0.5;" width="262.2744" x="1033.69" y="201"/><text fill="#000000" font-family="sans-serif" font-size="14" lengthAdjust="spacing" textLength="248.2744" x="1040.69" y="215.9951">Pol&#237;tica de Privacidad : Condiciones</text></g><g id="elem_Viewer"><rect fill="#F1F1F1" height="20.2969" style="stroke:#181818;stroke-width:0.5;" width="168.5332" x="707.19" y="104"/><text fill="#000000" font-family="sans-serif" font-size="14" lengthAdjust="spacing" textLength="154.5332" x="714.19" y="118.9951">Celia Becerril : Viewer</text></g><g id="elem_Subscripcion"><rect fill="#F1F1F1" height="20.2969" style="stroke:#181818;stroke-width:0.5;" width="190.8457" x="483.19" y="201"/><text fill="#000000" font-family="sans-serif" font-size="14" lengthAdjust="spacing" textLength="176.8457" x="490.19" y="215.9951">VIP de Ibai : Subscripcion</text></g><g id="elem_Recomendaci&#243;n"><rect fill="#F1F1F1" height="20.2969" style="stroke:#181818;stroke-width:0.5;" width="364.1094" x="405.69" y="298"/><text fill="#000000" font-family="sans-serif" font-size="14" lengthAdjust="spacing" textLength="350.1094" x="412.69" y="312.9951">Recomendaci&#243;n de Videojuegos : Recomendaci&#243;n</text></g><g id="elem_Categoria"><rect fill="#F1F1F1" height="20.2969" style="stroke:#181818;stroke-width:0.5;" width="181.4053" x="574.19" y="395"/><text fill="#000000" font-family="sans-serif" font-size="14" lengthAdjust="spacing" textLength="167.4053" x="581.19" y="409.9951">Videojuegos : Categoria</text></g><g id="elem_Contenido"><rect fill="#F1F1F1" height="20.2969" style="stroke:#181818;stroke-width:0.5;" width="125.7676" x="601.69" y="492"/><text fill="#000000" font-family="sans-serif" font-size="14" lengthAdjust="spacing" textLength="111.7676" x="608.69" y="506.9951">LOL : Contenido</text></g><!--link Dispositivo1 to CreadorDeContenido--><g id="link_Dispositivo1_CreadorDeContenido"><path codeLine="17" d="M174.69,221.11 C174.69,239.22 174.69,279.58 174.69,297.78 " fill="none" id="Dispositivo1-CreadorDeContenido" style="stroke:#181818;stroke-width:1.0;"/><text fill="#000000" font-family="sans-serif" font-size="13" lengthAdjust="spacing" textLength="22.9785" x="175.69" y="264.0669">usa</text></g><!--link CreadorDeContenido to Perfil1--><g id="link_CreadorDeContenido_Perfil1"><path codeLine="18" d="M170.85,318.11 C163.22,336.22 146.23,376.58 138.57,394.78 " fill="none" id="CreadorDeContenido-Perfil1" style="stroke:#181818;stroke-width:1.0;"/><text fill="#000000" font-family="sans-serif" font-size="13" lengthAdjust="spacing" textLength="32.9443" x="158.69" y="361.0669">tiene</text></g><!--link CreadorDeContenido to Condiciones1--><g id="link_CreadorDeContenido_Condiciones1"><path codeLine="19" d="M194.05,318.11 C232.66,336.27 318.81,376.78 357.38,394.92 " fill="none" id="CreadorDeContenido-Condiciones1" style="stroke:#181818;stroke-width:1.0;"/><text fill="#000000" font-family="sans-serif" font-size="13" lengthAdjust="spacing" textLength="44.4272" x="289.69" y="361.0669">acepta</text></g><!--link CreadorDeContenido to Contenido--><g id="link_CreadorDeContenido_Contenido"><path codeLine="20" d="M145.57,318.11 C96.48,334.9 6,372.9 42.69,415 C79.12,456.82 444.6843,486.0766 595.5443,496.4966 " fill="none" id="CreadorDeContenido-to-Contenido" style="stroke:#181818;stroke-width:1.0;"/><polygon fill="#181818" points="601.53,496.91,592.827,492.2993,596.5419,496.5655,592.2758,500.2803,601.53,496.91" style="stroke:#181818;stroke-width:1.0;"/><text fill="#000000" font-family="sans-serif" font-size="13" lengthAdjust="spacing" textLength="28.4565" x="43.69" y="409.5669">crea</text></g><!--link CreadorDeContenido to Categoria--><g id="link_CreadorDeContenido_Categoria"><path codeLine="21" d="M221.23,318.02 C314.75,336.16 524.53,376.83 618.1,394.97 " fill="none" id="CreadorDeContenido-Categoria" style="stroke:#181818;stroke-width:1.0;"/><text fill="#000000" font-family="sans-serif" font-size="13" lengthAdjust="spacing" textLength="67.4502" x="450.69" y="361.0669">publica en</text></g><!--link Categoria to Contenido--><g id="link_Categoria_Contenido"><path codeLine="22" d="M664.69,415.11 C664.69,433.22 664.69,473.58 664.69,491.78 " fill="none" id="Categoria-Contenido" style="stroke:#181818;stroke-width:1.0;"/><text fill="#000000" font-family="sans-serif" font-size="13" lengthAdjust="spacing" textLength="56.2847" x="665.69" y="458.0669">contiene</text></g><!--link Dispositivo2 to Viewer--><g id="link_Dispositivo2_Viewer"><path codeLine="23" d="M791.69,27.11 C791.69,45.22 791.69,85.58 791.69,103.78 " fill="none" id="Dispositivo2-Viewer" style="stroke:#181818;stroke-width:1.0;"/><text fill="#000000" font-family="sans-serif" font-size="13" lengthAdjust="spacing" textLength="22.9785" x="792.69" y="70.0669">usa</text></g><!--link Viewer to Perfil2--><g id="link_Viewer_Perfil2"><path codeLine="24" d="M810.6,124.14 C825.77,131.67 847.46,142.88 865.69,154 C890.72,169.28 918.45,189.48 933.81,200.98 " fill="none" id="Viewer-Perfil2" style="stroke:#181818;stroke-width:1.0;"/><text fill="#000000" font-family="sans-serif" font-size="13" lengthAdjust="spacing" textLength="32.9443" x="890.69" y="167.0669">tiene</text></g><!--link Viewer to Condiciones2--><g id="link_Viewer_Condiciones2"><path codeLine="25" d="M827.11,124.02 C898.31,142.16 1058,182.83 1129.22,200.97 " fill="none" id="Viewer-Condiciones2" style="stroke:#181818;stroke-width:1.0;"/><text fill="#000000" font-family="sans-serif" font-size="13" lengthAdjust="spacing" textLength="44.4272" x="1000.69" y="167.0669">acepta</text></g><!--link Viewer to Subscripcion--><g id="link_Viewer_Subscripcion"><path codeLine="26" d="M707.02,118.44 C650.35,122.73 582.92,132.37 564.69,154 C553.32,167.49 564.2,188.9 572.11,200.96 " fill="none" id="Viewer-Subscripcion" style="stroke:#181818;stroke-width:1.0;"/><text fill="#000000" font-family="sans-serif" font-size="13" lengthAdjust="spacing" textLength="32.9443" x="565.69" y="167.0669">tiene</text></g><!--link Subscripcion to Viewer--><g id="link_Subscripcion_Viewer"><path codeLine="27" d="M585.8,200.96 C596.12,188.49 616.43,166.17 638.69,154 C665.87,139.14 692.9815,131.0014 721.3615,125.2014 " fill="none" id="Subscripcion-to-Viewer" style="stroke:#181818;stroke-width:1.0;"/><polygon fill="#181818" points="727.24,124,717.6213,121.8831,722.3413,125.0012,719.2232,129.7211,727.24,124" style="stroke:#181818;stroke-width:1.0;"/><text fill="#000000" font-family="sans-serif" font-size="13" lengthAdjust="spacing" textLength="78.1714" x="639.69" y="167.0669">pertenece a</text></g><!--link Subscripcion to Recomendaci?n--><g id="link_Subscripcion_Recomendaci&#243;n"><path codeLine="28" d="M579.55,221.11 C581.26,239.22 585.09,279.58 586.81,297.78 " fill="none" id="Subscripcion-Recomendaci&#243;n" style="stroke:#181818;stroke-width:1.0;"/><text fill="#000000" font-family="sans-serif" font-size="13" lengthAdjust="spacing" textLength="62.8418" x="585.69" y="264.0669">establece</text></g><!--link Recomendaci?n to Categoria--><g id="link_Recomendaci&#243;n_Categoria"><path codeLine="29" d="M595.07,318.11 C609.75,336.22 638.6822,371.9186 653.4322,390.1186 " fill="none" id="Recomendaci&#243;n-to-Categoria" style="stroke:#181818;stroke-width:1.0;"/><polygon fill="#181818" points="657.21,394.78,654.6509,385.2694,654.0619,390.8955,648.4358,390.3064,657.21,394.78" style="stroke:#181818;stroke-width:1.0;"/><text fill="#000000" font-family="sans-serif" font-size="13" lengthAdjust="spacing" textLength="77.1748" x="632.69" y="361.0669">recomienda</text></g><!--link Viewer to Recomendaci?n--><g id="link_Viewer_Recomendaci&#243;n"><path codeLine="30" d="M785.26,124.23 C767.27,149.6 713.93,221.6 656.69,268 C641.61,280.22 627.5981,288.1702 613.2081,295.2202 " fill="none" id="Viewer-to-Recomendaci&#243;n" style="stroke:#181818;stroke-width:1.0;"/><polygon fill="#181818" points="607.82,297.86,617.662,297.4924,612.3101,295.6602,614.1423,290.3083,607.82,297.86" style="stroke:#181818;stroke-width:1.0;"/><text fill="#000000" font-family="sans-serif" font-size="13" lengthAdjust="spacing" textLength="40.3521" x="724.69" y="215.5669">recibe</text></g><!--link Viewer to Contenido--><g id="link_Viewer_Contenido"><path codeLine="31" d="M800.05,124.19 C813.8,140.31 839.69,175.26 839.69,210 C839.69,210 839.69,210 839.69,406 C839.69,458.55 783.8619,480.9566 733.7319,491.4866 " fill="none" id="Viewer-to-Contenido" style="stroke:#181818;stroke-width:1.0;"/><polygon fill="#181818" points="727.86,492.72,737.4901,494.7845,732.7532,491.6922,735.8455,486.9553,727.86,492.72" style="stroke:#181818;stroke-width:1.0;"/><text fill="#000000" font-family="sans-serif" font-size="13" lengthAdjust="spacing" textLength="56.2974" x="840.69" y="312.5669">visualiza</text></g><!--SRC=[VLEzRW8n3DxlAI9sXZ9sO2X8LIKaK5kn-t9kCGh9ASbHjU_KgO_0YzN97KdutHpx-sn_jhEX1eKaAnLMcs3ZhlNVOeUx6gshAbDlKNenMje6DJJ6YaSn9zSQHvxsPYJ0bU-7H7YfWHYxGlj1Ai9wCoEUqNaw_6d1LUTeKMvCoFL97XGwviwCRaYIqUXYWk9zLcUXG9j8iHYQd2DZFMfg-WultOd_3hL2Vr_L9A4bAeBwcgwCMHbr-FKa8GXRMTg3f0QQ-u8oVHPAY2UKQ2qfPgq9lz16GcycwFfb5MeCetxhQYSjjI5XH9UEn7b5QNQe6svgcFsQrsws7Nx62Px6OvvJLwv-mfk1PyiIzCgEhuHUB1Vz1Cgrf6rKvGs9yVZAnfZTEQYk11W-t1PZFA766wZoW1WA4bj_8-DKb8KbGsxbF2fbMDlLAkmTTPNTVTsSYktOOdbV0TJlTb0vF9AoILAM8-NrP3KvNgu_qK-SGMOgswBb9ldi19oZpYw0mVnrmx-HM9s5ukIAaTWGfX3FdKqlyp6CQYmXvSpsv3fGz0F_]--></g></svg>