<svg xmlns="http://www.w3.org/2000/svg" xmlns:xlink="http://www.w3.org/1999/xlink" contentStyleType="text/css" height="644px" preserveAspectRatio="none" style="width:886px;height:644px;background:#FFFFFF;" version="1.1" viewBox="0 0 886 644" width="886px" zoomAndPan="magnify"><defs/><g><path d="M19.5,7 L860.1066,7 A12.5,12.5 0 0 1 872.6066,19.5 L872.6066,33.2969 L7,33.2969 L7,19.5 A12.5,12.5 0 0 1 19.5,7 " fill="#F1F1F1" style="stroke:#F1F1F1;stroke-width:1.0;"/><rect fill="none" height="631.2969" rx="12.5" ry="12.5" style="stroke:#181818;stroke-width:0.5;" width="865.6066" x="7" y="7"/><line style="stroke:#181818;stroke-width:0.5;" x1="7" x2="872.6066" y1="33.2969" y2="33.2969"/><text fill="#000000" font-family="sans-serif" font-size="14" lengthAdjust="spacing" textLength="203.3076" x="338.1495" y="24.9951">CreadorDeContenidoYViewer</text><ellipse cx="327.36" cy="54.2969" fill="#222222" rx="10" ry="10" style="stroke:#222222;stroke-width:1.0;"/><g id="CreadorDeContenidoYViewer.Desconocido"><rect fill="#F1F1F1" height="50" rx="12.5" ry="12.5" style="stroke:#181818;stroke-width:0.5;" width="109.4277" x="272.86" y="117.2969"/><line style="stroke:#181818;stroke-width:0.5;" x1="272.86" x2="382.2877" y1="143.5938" y2="143.5938"/><text fill="#000000" font-family="sans-serif" font-size="14" lengthAdjust="spacing" textLength="89.4277" x="282.86" y="135.292">Desconocido</text></g><g id="elem_Decision"><polygon fill="#F1F1F1" points="327.36,220.2969,339.36,232.2969,327.36,244.2969,315.36,232.2969,327.36,220.2969" style="stroke:#181818;stroke-width:0.5;"/></g><g id="CreadorDeContenidoYViewer.ViewerEnProceso"><rect fill="#F1F1F1" height="50" rx="12.5" ry="12.5" style="stroke:#181818;stroke-width:0.5;" width="140.5518" x="145.86" y="297.2969"/><line style="stroke:#181818;stroke-width:0.5;" x1="145.86" x2="286.4118" y1="323.5938" y2="323.5938"/><text fill="#000000" font-family="sans-serif" font-size="14" lengthAdjust="spacing" textLength="120.5518" x="155.86" y="315.292">ViewerEnProceso</text></g><g id="CreadorDeContenidoYViewer.EnProceso"><rect fill="#F1F1F1" height="50" rx="12.5" ry="12.5" style="stroke:#181818;stroke-width:0.5;" width="92.6523" x="371.86" y="297.2969"/><line style="stroke:#181818;stroke-width:0.5;" x1="371.86" x2="464.5123" y1="323.5938" y2="323.5938"/><text fill="#000000" font-family="sans-serif" font-size="14" lengthAdjust="spacing" textLength="72.6523" x="381.86" y="315.292">EnProceso</text></g><g id="CreadorDeContenidoYViewer.VerificandoCondicionesViewer"><rect fill="#F1F1F1" height="50" rx="12.5" ry="12.5" style="stroke:#181818;stroke-width:0.5;" width="232.0781" x="70.36" y="400.2969"/><line style="stroke:#181818;stroke-width:0.5;" x1="70.36" x2="302.4381" y1="426.5938" y2="426.5938"/><text fill="#000000" font-family="sans-serif" font-size="14" lengthAdjust="spacing" textLength="212.0781" x="80.36" y="418.292">VerificandoCondicionesViewer</text></g><g id="CreadorDeContenidoYViewer.Viewer"><rect fill="#F1F1F1" height="50" rx="12.5" ry="12.5" style="stroke:#181818;stroke-width:0.5;" width="67.8994" x="212.36" y="503.2969"/><line style="stroke:#181818;stroke-width:0.5;" x1="212.36" x2="280.2594" y1="529.5938" y2="529.5938"/><text fill="#000000" font-family="sans-serif" font-size="14" lengthAdjust="spacing" textLength="47.8994" x="222.36" y="521.292">Viewer</text></g><g id="CreadorDeContenidoYViewer.VerificandoRequerimientosCreador"><rect fill="#F1F1F1" height="50" rx="12.5" ry="12.5" style="stroke:#181818;stroke-width:0.5;" width="265.9092" x="320.36" y="400.2969"/><line style="stroke:#181818;stroke-width:0.5;" x1="320.36" x2="586.2692" y1="426.5938" y2="426.5938"/><text fill="#000000" font-family="sans-serif" font-size="14" lengthAdjust="spacing" textLength="245.9092" x="330.36" y="418.292">VerificandoRequerimientosCreador</text></g><g id="CreadorDeContenidoYViewer.CreadorDeContenido"><rect fill="#F1F1F1" height="50" rx="12.5" ry="12.5" style="stroke:#181818;stroke-width:0.5;" width="166.8564" x="365.86" y="503.2969"/><line style="stroke:#181818;stroke-width:0.5;" x1="365.86" x2="532.7164" y1="529.5938" y2="529.5938"/><text fill="#000000" font-family="sans-serif" font-size="14" lengthAdjust="spacing" textLength="146.8564" x="375.86" y="521.292">CreadorDeContenido</text></g><ellipse cx="349.36" cy="617.2969" fill="none" rx="11" ry="11" style="stroke:#222222;stroke-width:1.0;"/><ellipse cx="349.36" cy="617.2969" fill="#222222" rx="6" ry="6" style="stroke:#222222;stroke-width:1.0;"/><!--link *start*CreadorDeContenidoYViewer to Desconocido--><g id="link_*start*CreadorDeContenidoYViewer_Desconocido"><path d="M327.36,64.4969 C327.36,76.9769 327.36,93.7169 327.36,111.2269 " fill="none" id="*start*CreadorDeContenidoYViewer-to-Desconocido" style="stroke:#181818;stroke-width:1.0;"/><polygon fill="#181818" points="327.36,117.2269,331.36,108.2269,327.36,112.2269,323.36,108.2269,327.36,117.2269" style="stroke:#181818;stroke-width:1.0;"/><text fill="#000000" font-family="sans-serif" font-size="13" lengthAdjust="spacing" textLength="79.9678" x="328.36" y="95.3638">Sin registrar</text></g><!--link Desconocido to Decision--><g id="link_Desconocido_Decision"><path d="M327.36,167.3469 C327.36,184.4469 327.36,200.6369 327.36,213.8869 " fill="none" id="Desconocido-to-Decision" style="stroke:#181818;stroke-width:1.0;"/><polygon fill="#181818" points="327.36,219.8869,331.36,210.8869,327.36,214.8869,323.36,210.8869,327.36,219.8869" style="stroke:#181818;stroke-width:1.0;"/><text fill="#000000" font-family="sans-serif" font-size="13" lengthAdjust="spacing" textLength="125.8994" x="328.36" y="198.3638">Proceso de registro</text></g><!--link Decision to ViewerEnProceso--><g id="link_Decision_ViewerEnProceso"><path d="M316.98,234.0869 C299.28,235.9569 263.09,242.1569 241.36,262.2969 C231.49,271.4469 227.1616,279.4006 223.4416,291.2906 " fill="none" id="Decision-to-ViewerEnProceso" style="stroke:#181818;stroke-width:1.0;"/><polygon fill="#181818" points="221.65,297.0169,228.1549,289.6218,223.143,292.245,220.5198,287.2331,221.65,297.0169" style="stroke:#181818;stroke-width:1.0;"/><text fill="#000000" font-family="sans-serif" font-size="13" lengthAdjust="spacing" textLength="142.5366" x="242.36" y="275.3638">Registra como Viewer</text></g><!--link Decision to EnProceso--><g id="link_Decision_EnProceso"><path d="M336.47,235.4869 C349.64,239.0669 374.09,247.3169 389.36,262.2969 C399.14,271.8869 403.9015,279.8721 408.5615,291.5821 " fill="none" id="Decision-to-EnProceso" style="stroke:#181818;stroke-width:1.0;"/><polygon fill="#181818" points="410.78,297.1569,411.1688,287.3157,408.9313,292.5112,403.7357,290.2737,410.78,297.1569" style="stroke:#181818;stroke-width:1.0;"/><text fill="#000000" font-family="sans-serif" font-size="13" lengthAdjust="spacing" textLength="240.9316" x="401.36" y="275.3638">Registra como Creador de Contenido</text></g><!--link ViewerEnProceso to VerificandoCondicionesViewer--><g id="link_ViewerEnProceso_VerificandoCondicionesViewer"><path d="M209.18,347.4869 C204.46,363.3669 200.0298,378.2957 195.2998,394.2057 " fill="none" id="ViewerEnProceso-to-VerificandoCondicionesViewer" style="stroke:#181818;stroke-width:1.0;"/><polygon fill="#181818" points="193.59,399.9569,199.9889,392.4699,195.0149,395.1642,192.3206,390.1902,193.59,399.9569" style="stroke:#181818;stroke-width:1.0;"/><text fill="#000000" font-family="sans-serif" font-size="13" lengthAdjust="spacing" textLength="156.3555" x="203.36" y="378.3638">Revisi&#243;n de condiciones</text></g><!--link VerificandoCondicionesViewer to Viewer--><g id="link_VerificandoCondicionesViewer_Viewer"><path d="M200.73,450.4869 C210.16,466.3669 219.3859,481.8882 228.8359,497.7982 " fill="none" id="VerificandoCondicionesViewer-to-Viewer" style="stroke:#181818;stroke-width:1.0;"/><polygon fill="#181818" points="231.9,502.9569,230.743,493.1762,229.3466,498.658,223.8648,497.2616,231.9,502.9569" style="stroke:#181818;stroke-width:1.0;"/><text fill="#000000" font-family="sans-serif" font-size="13" lengthAdjust="spacing" textLength="150.4077" x="220.36" y="481.3638">Condiciones aceptadas</text></g><!--link VerificandoCondicionesViewer to Desconocido--><g id="link_VerificandoCondicionesViewer_Desconocido"><path d="M140.97,400.0969 C89.81,369.5369 18,314.6169 52.36,262.2969 C101.2,187.9469 201.5759,160.7782 266.7759,150.3082 " fill="none" id="VerificandoCondicionesViewer-to-Desconocido" style="stroke:#181818;stroke-width:1.0;"/><polygon fill="#181818" points="272.7,149.3569,263.1796,146.8344,267.7632,150.1496,264.448,154.7332,272.7,149.3569" style="stroke:#181818;stroke-width:1.0;"/><text fill="#000000" font-family="sans-serif" font-size="13" lengthAdjust="spacing" textLength="170.7329" x="53.36" y="275.3638">Condiciones no aceptadas</text></g><!--link EnProceso to VerificandoRequerimientosCreador--><g id="link_EnProceso_VerificandoRequerimientosCreador"><path d="M426.75,347.4869 C432.25,363.3669 437.4565,378.3773 442.9665,394.2873 " fill="none" id="EnProceso-to-VerificandoRequerimientosCreador" style="stroke:#181818;stroke-width:1.0;"/><polygon fill="#181818" points="444.93,399.9569,445.7645,390.1434,443.2937,395.2322,438.205,392.7615,444.93,399.9569" style="stroke:#181818;stroke-width:1.0;"/><text fill="#000000" font-family="sans-serif" font-size="13" lengthAdjust="spacing" textLength="199.7417" x="438.36" y="378.3638">Verificaci&#243;n de requerimientos</text></g><!--link VerificandoRequerimientosCreador to CreadorDeContenido--><g id="link_VerificandoRequerimientosCreador_CreadorDeContenido"><path d="M452.41,450.4869 C451.78,466.3669 451.1974,481.0516 450.5674,496.9616 " fill="none" id="VerificandoRequerimientosCreador-to-CreadorDeContenido" style="stroke:#181818;stroke-width:1.0;"/><polygon fill="#181818" points="450.33,502.9569,454.683,494.1222,450.5278,497.9608,446.6892,493.8057,450.33,502.9569" style="stroke:#181818;stroke-width:1.0;"/><text fill="#000000" font-family="sans-serif" font-size="13" lengthAdjust="spacing" textLength="190.6138" x="452.36" y="481.3638">Requerimientos completados</text></g><!--link VerificandoRequerimientosCreador to Desconocido--><g id="link_VerificandoRequerimientosCreador_Desconocido"><path d="M586.79,406.5569 C612.33,400.4969 633.8,392.5569 642.36,382.2969 C739.8,265.5469 663.36,287.6269 646.36,262.2969 C587.82,175.0569 462.7595,152.0828 388.1295,145.8928 " fill="none" id="VerificandoRequerimientosCreador-to-Desconocido" style="stroke:#181818;stroke-width:1.0;"/><polygon fill="#181818" points="382.15,145.3969,390.7886,150.1271,387.1329,145.8102,391.4498,142.1545,382.15,145.3969" style="stroke:#181818;stroke-width:1.0;"/><text fill="#000000" font-family="sans-serif" font-size="13" lengthAdjust="spacing" textLength="186.2466" x="676.36" y="275.3638">Requerimientos incompletos</text></g><!--link Viewer to *end*CreadorDeContenidoYViewer--><g id="link_Viewer_*end*CreadorDeContenidoYViewer"><path d="M244.83,553.3469 C245.36,565.1769 248.04,578.8769 256.36,588.2969 C277.56,612.3169 312.521,615.9973 332.231,616.3573 " fill="none" id="Viewer-to-*end*CreadorDeContenidoYViewer" style="stroke:#181818;stroke-width:1.0;"/><polygon fill="#181818" points="338.23,616.4669,329.3045,612.3032,333.2308,616.3756,329.1585,620.3019,338.23,616.4669" style="stroke:#181818;stroke-width:1.0;"/><text fill="#000000" font-family="sans-serif" font-size="13" lengthAdjust="spacing" textLength="162.2969" x="257.36" y="584.3638">Fin registro como Viewer</text></g><!--link CreadorDeContenido to *end*CreadorDeContenidoYViewer--><g id="link_CreadorDeContenido_*end*CreadorDeContenidoYViewer"><path d="M443.95,553.4469 C440.2,565.2969 434.09,578.9869 424.36,588.2969 C406.19,605.6969 382.1486,611.5642 366.1486,614.0542 " fill="none" id="CreadorDeContenido-to-*end*CreadorDeContenidoYViewer" style="stroke:#181818;stroke-width:1.0;"/><polygon fill="#181818" points="360.22,614.9769,369.7281,617.5453,365.1605,614.208,368.4979,609.6405,360.22,614.9769" style="stroke:#181818;stroke-width:1.0;"/><text fill="#000000" font-family="sans-serif" font-size="13" lengthAdjust="spacing" textLength="260.6919" x="437.36" y="584.3638">Fin registro como Creador de Contenido</text></g><!--SRC=[ZP91JWCn34NtFONNIBt0g9fD1zQeI4W8iOWS0vQetIO15eXJSGGkHf9cEfbXMdKP-VzdVyS-c42mTcIikexMAe64hJxSCtsIWwy5mEFL4ooNBNJaKKKnbg61EnPmzC8-EECMKUOpgYDapogmMk6hCbBRfcBjFR2Ah85RfqXUmLBFqsmeWgG-37CjlRI1JUaCg5ijzQdhjBxaJIsFYTEKqpwvDpb-PZHYDMejOyIJB-j9u8_OyVT74Wm7GQATSmwn8gGgWq7Q1MFDHOJnbzGOqOeKKIT3RMZ_7bzR9Wdg-yqqHmdsuTn8E9vk7f8w_J-jlBHQdlvazqPnrCknu-0J7aiXgXz-DTlIAJTmCvokJWvePjnpljb3-lu3]--></g></svg>