<svg xmlns="http://www.w3.org/2000/svg" xmlns:xlink="http://www.w3.org/1999/xlink" contentStyleType="text/css" height="660px" preserveAspectRatio="none" style="width:726px;height:660px;background:#FFFFFF;" version="1.1" viewBox="0 0 726 660" width="726px" zoomAndPan="magnify"><defs/><g><!--class Usuario--><g id="elem_Usuario"><rect codeLine="4" fill="#F1F1F1" height="26.2969" id="Usuario" rx="2.5" ry="2.5" style="stroke:#181818;stroke-width:0.5;" width="59.2041" x="286" y="10.021"/><text fill="#000000" font-family="sans-serif" font-size="14" lengthAdjust="spacing" textLength="53.2041" x="289" y="28.0162">Usuario</text></g><!--class Condiciones--><g id="elem_Condiciones"><rect codeLine="8" fill="#F1F1F1" height="26.2969" id="Condiciones" rx="2.5" ry="2.5" style="stroke:#181818;stroke-width:0.5;" width="90.9229" x="7" y="113.021"/><text fill="#000000" font-family="sans-serif" font-size="14" lengthAdjust="spacing" textLength="84.9229" x="10" y="131.0162">Condiciones</text></g><!--class Dispositivo--><g id="elem_Dispositivo"><rect codeLine="12" fill="#F1F1F1" height="26.2969" id="Dispositivo" rx="2.5" ry="2.5" style="stroke:#181818;stroke-width:0.5;" width="82.8291" x="133" y="113.021"/><text fill="#000000" font-family="sans-serif" font-size="14" lengthAdjust="spacing" textLength="76.8291" x="136" y="131.0162">Dispositivo</text></g><!--class CreadorDeContenido--><g id="elem_CreadorDeContenido"><rect codeLine="16" fill="#F1F1F1" height="26.2969" id="CreadorDeContenido" rx="2.5" ry="2.5" style="stroke:#181818;stroke-width:0.5;" width="152.8564" x="338" y="113.021"/><text fill="#000000" font-family="sans-serif" font-size="14" lengthAdjust="spacing" textLength="146.8564" x="341" y="131.0162">CreadorDeContenido</text></g><!--class Viewer--><g id="elem_Viewer"><rect codeLine="20" fill="#F1F1F1" height="26.2969" id="Viewer" rx="2.5" ry="2.5" style="stroke:#181818;stroke-width:0.5;" width="53.8994" x="393.5" y="216.021"/><text fill="#000000" font-family="sans-serif" font-size="14" lengthAdjust="spacing" textLength="47.8994" x="396.5" y="234.0162">Viewer</text></g><!--class Subscripcion--><g id="elem_Subscripcion"><rect codeLine="24" fill="#F1F1F1" height="26.2969" id="Subscripcion" rx="2.5" ry="2.5" style="stroke:#181818;stroke-width:0.5;" width="95.1953" x="499" y="319.021"/><text fill="#000000" font-family="sans-serif" font-size="14" lengthAdjust="spacing" textLength="89.1953" x="502" y="337.0162">Subscripcion</text></g><!--class Categoria--><g id="elem_Categoria"><rect codeLine="28" fill="#F1F1F1" height="26.2969" id="Categoria" rx="2.5" ry="2.5" style="stroke:#181818;stroke-width:0.5;" width="74.1338" x="537.5" y="525.021"/><text fill="#000000" font-family="sans-serif" font-size="14" lengthAdjust="spacing" textLength="68.1338" x="540.5" y="543.0162">Categoria</text></g><!--class Recomendacion--><g id="elem_Recomendacion"><rect codeLine="32" fill="#F1F1F1" height="26.2969" id="Recomendacion" rx="2.5" ry="2.5" style="stroke:#181818;stroke-width:0.5;" width="118.2188" x="515.5" y="422.021"/><text fill="#000000" font-family="sans-serif" font-size="14" lengthAdjust="spacing" textLength="112.2188" x="518.5" y="440.0162">Recomendacion</text></g><!--class Contenido--><g id="elem_Contenido"><rect codeLine="36" fill="#F1F1F1" height="26.2969" id="Contenido" rx="2.5" ry="2.5" style="stroke:#181818;stroke-width:0.5;" width="77.5313" x="383.5" y="628.021"/><text fill="#000000" font-family="sans-serif" font-size="14" lengthAdjust="spacing" textLength="71.5313" x="386.5" y="646.0162">Contenido</text></g><!--class Perfil--><g id="elem_Perfil"><rect codeLine="40" fill="#F1F1F1" height="26.2969" id="Perfil" rx="2.5" ry="2.5" style="stroke:#181818;stroke-width:0.5;" width="41.5195" x="526.5" y="113.021"/><text fill="#000000" font-family="sans-serif" font-size="14" lengthAdjust="spacing" textLength="35.5195" x="529.5" y="131.0162">Perfil</text></g><!--link Usuario to Dispositivo--><g id="link_Usuario_Dispositivo"><path codeLine="44" d="M288.46,36.121 C272.69,43.731 252.75,54.301 236.5,66.021 C216.97,80.101 201.4104,95.5822 189.6204,108.2922 " fill="none" id="Usuario-to-Dispositivo" style="stroke:#181818;stroke-width:1.0;"/><polygon fill="#181818" points="185.54,112.691,194.5932,108.8131,188.9404,109.0253,188.7281,103.3725,185.54,112.691" style="stroke:#181818;stroke-width:1.0;"/><text fill="#000000" font-family="sans-serif" font-size="13" lengthAdjust="spacing" textLength="22.9785" x="237.5" y="79.0879">usa</text><text fill="#000000" font-family="sans-serif" font-size="13" lengthAdjust="spacing" textLength="8.271" x="269.8015" y="55.241">1</text><text fill="#000000" font-family="sans-serif" font-size="13" lengthAdjust="spacing" textLength="23.0356" x="162.4085" y="102.0466">1..*</text></g><!--link Usuario to Condiciones--><g id="link_Usuario_Condiciones"><path codeLine="45" d="M285.81,30.091 C254.51,36.971 204.07,49.411 162.5,66.021 C129.3,79.291 98.3304,96.8499 76.8604,109.8699 " fill="none" id="Usuario-to-Condiciones" style="stroke:#181818;stroke-width:1.0;"/><polygon fill="#181818" points="71.73,112.981,81.4997,111.7345,76.0053,110.3884,77.3514,104.894,71.73,112.981" style="stroke:#181818;stroke-width:1.0;"/><text fill="#000000" font-family="sans-serif" font-size="13" lengthAdjust="spacing" textLength="44.4272" x="163.5" y="79.0879">acepta</text><text fill="#000000" font-family="sans-serif" font-size="13" lengthAdjust="spacing" textLength="8.271" x="269.6062" y="27.0331">1</text><text fill="#000000" font-family="sans-serif" font-size="13" lengthAdjust="spacing" textLength="8.271" x="69.7954" y="101.928">1</text></g><!--link Usuario to Perfil--><g id="link_Usuario_Perfil"><path codeLine="46" d="M345.1,34.071 C368.09,42.101 400.64,53.981 428.5,66.021 C463.42,81.121 497.4523,98.463 521.0123,110.883 " fill="none" id="Usuario-to-Perfil" style="stroke:#181818;stroke-width:1.0;"/><polygon fill="#181818" points="526.32,113.681,520.2239,105.9456,521.897,111.3494,516.4932,113.0225,526.32,113.681" style="stroke:#181818;stroke-width:1.0;"/><text fill="#000000" font-family="sans-serif" font-size="13" lengthAdjust="spacing" textLength="32.9443" x="466.5" y="79.0879">tiene</text><text fill="#000000" font-family="sans-serif" font-size="13" lengthAdjust="spacing" textLength="8.271" x="353.2982" y="31.9832">1</text><text fill="#000000" font-family="sans-serif" font-size="13" lengthAdjust="spacing" textLength="8.271" x="510.1036" y="104.1488">1</text></g><!--link Perfil to Usuario--><g id="link_Perfil_Usuario"><path codeLine="57" d="M542.03,112.541 C535.4,98.931 522.9,77.541 505.5,66.021 C455.93,33.201 390.7057,25.8793 351.0357,24.3693 " fill="none" id="Perfil-to-Usuario" style="stroke:#181818;stroke-width:1.0;"/><polygon fill="#181818" points="345.04,24.141,353.8813,28.4805,350.0364,24.3312,354.1856,20.4863,345.04,24.141" style="stroke:#181818;stroke-width:1.0;"/><text fill="#000000" font-family="sans-serif" font-size="13" lengthAdjust="spacing" textLength="78.1714" x="523.5" y="79.0879">pertenece a</text><text fill="#000000" font-family="sans-serif" font-size="13" lengthAdjust="spacing" textLength="8.271" x="530.6765" y="101.8413">1</text><text fill="#000000" font-family="sans-serif" font-size="13" lengthAdjust="spacing" textLength="8.271" x="353.2235" y="19.6328">1</text></g><!--link Usuario to CreadorDeContenido--><g id="link_Usuario_CreadorDeContenido"><path codeLine="47" d="M322.8,36.131 C330.69,48.661 344.08,68.401 358.5,83.021 C369.68,94.351 369.2063,94.9534 380.6063,102.7234 " fill="none" id="Usuario-to-CreadorDeContenido" style="stroke:#181818;stroke-width:1.0;"/><polygon fill="none" points="395.48,112.861,383.9855,97.7655,377.227,107.6813,395.48,112.861" style="stroke:#181818;stroke-width:1.0;"/><text fill="#000000" font-family="sans-serif" font-size="13" lengthAdjust="spacing" textLength="64.9873" x="359.5" y="79.0879">puede ser</text><text fill="#000000" font-family="sans-serif" font-size="13" lengthAdjust="spacing" textLength="8.271" x="316.1125" y="56.2808">1</text><text fill="#000000" font-family="sans-serif" font-size="13" lengthAdjust="spacing" textLength="24.8066" x="359.8348" y="102.02">0..1</text></g><!--link Usuario to Viewer--><g id="link_Usuario_Viewer"><path codeLine="48" d="M310.32,36.191 C301.87,58.051 287.64,104.841 304.5,139.021 C322.91,176.361 349.1992,194.414 377.3192,208.294 " fill="none" id="Usuario-to-Viewer" style="stroke:#181818;stroke-width:1.0;"/><polygon fill="none" points="393.46,216.261,379.9749,202.9137,374.6635,213.6742,393.46,216.261" style="stroke:#181818;stroke-width:1.0;"/><text fill="#000000" font-family="sans-serif" font-size="13" lengthAdjust="spacing" textLength="14.771" x="305.5" y="130.5879">es</text><text fill="#000000" font-family="sans-serif" font-size="13" lengthAdjust="spacing" textLength="8.271" x="298.7185" y="56.3644">1</text><text fill="#000000" font-family="sans-serif" font-size="13" lengthAdjust="spacing" textLength="8.271" x="377.1679" y="207.861">1</text></g><!--link CreadorDeContenido to Viewer--><g id="link_CreadorDeContenido_Viewer"><path codeLine="49" d="M415.24,139.401 C416.39,158.891 418.2742,190.5016 419.4242,209.8616 " fill="none" id="CreadorDeContenido-to-Viewer" style="stroke:#181818;stroke-width:1.0;"/><polygon fill="#181818" points="419.78,215.851,423.2393,206.6297,419.4835,210.8598,415.2534,207.1041,419.78,215.851" style="stroke:#181818;stroke-width:1.0;"/><text fill="#000000" font-family="sans-serif" font-size="13" lengthAdjust="spacing" textLength="14.771" x="419.5" y="182.0879">es</text><text fill="#000000" font-family="sans-serif" font-size="13" lengthAdjust="spacing" textLength="8.271" x="406.0761" y="159.3972">1</text><text fill="#000000" font-family="sans-serif" font-size="13" lengthAdjust="spacing" textLength="8.271" x="410.0513" y="205.0062">1</text></g><!--link CreadorDeContenido to Categoria--><g id="link_CreadorDeContenido_Categoria"><path codeLine="50" d="M485.96,139.061 C566.55,154.711 686.5,185.201 686.5,228.021 C686.5,228.021 686.5,228.021 686.5,436.021 C686.5,480.011 643.7215,507.2547 610.5515,522.5047 " fill="none" id="CreadorDeContenido-to-Categoria" style="stroke:#181818;stroke-width:1.0;"/><polygon fill="#181818" points="605.1,525.011,614.9481,524.8859,609.6429,522.9224,611.6063,517.6173,605.1,525.011" style="stroke:#181818;stroke-width:1.0;"/><text fill="#000000" font-family="sans-serif" font-size="13" lengthAdjust="spacing" textLength="31.3511" x="687.5" y="336.5879">hace</text><text fill="#000000" font-family="sans-serif" font-size="13" lengthAdjust="spacing" textLength="8.271" x="498.6831" y="157.3932">1</text><text fill="#000000" font-family="sans-serif" font-size="13" lengthAdjust="spacing" textLength="23.0356" x="589.6013" y="513.9698">1..*</text></g><!--link Viewer to Subscripcion--><g id="link_Viewer_Subscripcion"><path codeLine="51" d="M435.95,242.401 C460.26,261.891 502.4886,295.7381 526.6386,315.0981 " fill="none" id="Viewer-to-Subscripcion" style="stroke:#181818;stroke-width:1.0;"/><polygon fill="#181818" points="531.32,318.851,526.7998,310.1007,527.4188,315.7236,521.7959,316.3426,531.32,318.851" style="stroke:#181818;stroke-width:1.0;"/><text fill="#000000" font-family="sans-serif" font-size="13" lengthAdjust="spacing" textLength="32.9443" x="491.5" y="285.0879">tiene</text><text fill="#000000" font-family="sans-serif" font-size="13" lengthAdjust="spacing" textLength="8.271" x="432.3861" y="262.3972">1</text><text fill="#000000" font-family="sans-serif" font-size="13" lengthAdjust="spacing" textLength="23.0356" x="498.1178" y="308.0062">0..*</text></g><!--reverse link Categoria to Contenido--><g id="link_Categoria_Contenido"><path codeLine="52" d="M551.173,554.5221 C521.953,573.9421 470.16,608.351 440.9,627.791 " fill="none" id="Categoria-backto-Contenido" style="stroke:#181818;stroke-width:1.0;"/><polygon fill="#181818" points="556.17,551.201,546.4604,552.8513,552.0058,553.9686,550.8885,559.514,556.17,551.201" style="stroke:#181818;stroke-width:1.0;"/><text fill="#000000" font-family="sans-serif" font-size="13" lengthAdjust="spacing" textLength="66.0728" x="508.5" y="594.0879">pertenece</text><text fill="#000000" font-family="sans-serif" font-size="13" lengthAdjust="spacing" textLength="8.271" x="539.4046" y="571.3784">1</text><text fill="#000000" font-family="sans-serif" font-size="13" lengthAdjust="spacing" textLength="23.0356" x="452.3955" y="616.9233">0..*</text></g><!--link Subscripcion to Recomendacion--><g id="link_Subscripcion_Recomendacion"><path codeLine="53" d="M549.93,345.401 C555.34,364.891 564.1563,396.7093 569.5263,416.0693 " fill="none" id="Subscripcion-to-Recomendacion" style="stroke:#181818;stroke-width:1.0;"/><polygon fill="#181818" points="571.13,421.851,572.5789,412.1093,569.7936,417.0329,564.87,414.2476,571.13,421.851" style="stroke:#181818;stroke-width:1.0;"/><text fill="#000000" font-family="sans-serif" font-size="13" lengthAdjust="spacing" textLength="62.8418" x="562.5" y="388.0879">establece</text><text fill="#000000" font-family="sans-serif" font-size="13" lengthAdjust="spacing" textLength="8.271" x="541.7271" y="365.3972">1</text><text fill="#000000" font-family="sans-serif" font-size="13" lengthAdjust="spacing" textLength="23.0356" x="542.4259" y="411.0062">1..*</text></g><!--link Recomendacion to Categoria--><g id="link_Recomendacion_Categoria"><path codeLine="54" d="M574.5,448.401 C574.5,467.891 574.5,499.491 574.5,518.851 " fill="none" id="Recomendacion-to-Categoria" style="stroke:#181818;stroke-width:1.0;"/><polygon fill="#181818" points="574.5,524.851,578.5,515.851,574.5,519.851,570.5,515.851,574.5,524.851" style="stroke:#181818;stroke-width:1.0;"/><text fill="#000000" font-family="sans-serif" font-size="13" lengthAdjust="spacing" textLength="36.3213" x="575.5" y="491.0879">sobre</text><text fill="#000000" font-family="sans-serif" font-size="13" lengthAdjust="spacing" textLength="8.271" x="564.985" y="468.3972">1</text><text fill="#000000" font-family="sans-serif" font-size="13" lengthAdjust="spacing" textLength="23.0356" x="547.0969" y="514.0062">0..*</text></g><!--link Contenido to CreadorDeContenido--><g id="link_Contenido_CreadorDeContenido"><path codeLine="55" d="M398.53,627.911 C370.38,611.781 327.5,580.421 327.5,539.021 C327.5,228.021 327.5,228.021 327.5,228.021 C327.5,187.751 362.6373,158.7968 388.3873,142.3068 " fill="none" id="Contenido-to-CreadorDeContenido" style="stroke:#181818;stroke-width:1.0;"/><polygon fill="#181818" points="393.44,139.071,383.7038,140.5561,389.2294,141.7675,388.018,147.2931,393.44,139.071" style="stroke:#181818;stroke-width:1.0;"/><text fill="#000000" font-family="sans-serif" font-size="13" lengthAdjust="spacing" textLength="70.3447" x="328.5" y="388.0879">creado por</text><text fill="#000000" font-family="sans-serif" font-size="13" lengthAdjust="spacing" textLength="8.271" x="379.6625" y="616.8304">1</text><text fill="#000000" font-family="sans-serif" font-size="13" lengthAdjust="spacing" textLength="8.271" x="375.1883" y="159.581">1</text></g><!--link Viewer to Contenido--><g id="link_Viewer_Contenido"><path codeLine="56" d="M420.9,242.151 C421.48,261.101 422.5,298.931 422.5,331.021 C422.5,331.021 422.5,331.021 422.5,539.021 C422.5,571.111 422.5,602.931 422.5,621.891 " fill="none" id="Viewer-to-Contenido" style="stroke:#181818;stroke-width:1.0;"/><polygon fill="#181818" points="422.5,627.891,426.5,618.891,422.5,622.891,418.5,618.891,422.5,627.891" style="stroke:#181818;stroke-width:1.0;"/><text fill="#000000" font-family="sans-serif" font-size="13" lengthAdjust="spacing" textLength="56.2974" x="423.5" y="439.5879">visualiza</text><text fill="#000000" font-family="sans-serif" font-size="13" lengthAdjust="spacing" textLength="8.271" x="411.5557" y="262.3087">1</text><text fill="#000000" font-family="sans-serif" font-size="13" lengthAdjust="spacing" textLength="23.0356" x="395.2118" y="617.0615">0..*</text></g><!--SRC=[ZL7BReGm3BpdAooEbK3RQrJrqls0ggls7e9RB069dB1LN__UG84Da9LwYkNCs9wPcYe4JQmR5FLGOslz1xJObiXE2Dqev-3PzOh9m9S00F4pjnzCLv4cqw7RVXt9MUF8qtdFObILuIC6kiUEgXtYXV0TUUnUcgU-T9h93ljs8vN7DyEajXzFg4sBNQMIh6lx7v5VgVdhZkrPVtQRGPxVXxSeRhALI0czKmbWjd99Wj9eVHeuhPNW2JlSGBu3vb0KmxozVn9iZo4yXvoWXM9oL08waU37L_mREbgmE2-X3jB4n5vGXn4LPpVBksGsWE_oV0Olku8gv51YcBjAVtF3AkJXRg_APY2jqz_S55tkJCdXeAGTIRVrs0Hh-8hW67oca4X3dqfC0SVZvxGYhQ1-0G00]--></g></svg>