<svg xmlns="http://www.w3.org/2000/svg" xmlns:xlink="http://www.w3.org/1999/xlink" contentStyleType="text/css" height="541px" preserveAspectRatio="none" style="width:563px;height:541px;background:#FFFFFF;" version="1.1" viewBox="0 0 563 541" width="563px" zoomAndPan="magnify"><defs/><g><path d="M19.5,7 L537.3188,7 A12.5,12.5 0 0 1 549.8188,19.5 L549.8188,33.2969 L7,33.2969 L7,19.5 A12.5,12.5 0 0 1 19.5,7 " fill="#F1F1F1" style="stroke:#F1F1F1;stroke-width:1.0;"/><rect fill="none" height="528.2969" rx="12.5" ry="12.5" style="stroke:#181818;stroke-width:0.5;" width="542.8188" x="7" y="7"/><line style="stroke:#181818;stroke-width:0.5;" x1="7" x2="549.8188" y1="33.2969" y2="33.2969"/><text fill="#000000" font-family="sans-serif" font-size="14" lengthAdjust="spacing" textLength="203.3076" x="176.7556" y="24.9951">CreadorDeContenidoYViewer</text><ellipse cx="156.5" cy="54.2969" fill="#222222" rx="10" ry="10" style="stroke:#222222;stroke-width:1.0;"/><g id="CreadorDeContenidoYViewer.Desconocido"><rect fill="#F1F1F1" height="50" rx="12.5" ry="12.5" style="stroke:#181818;stroke-width:0.5;" width="109.4277" x="102" y="117.2969"/><line style="stroke:#181818;stroke-width:0.5;" x1="102" x2="211.4277" y1="143.5938" y2="143.5938"/><text fill="#000000" font-family="sans-serif" font-size="14" lengthAdjust="spacing" textLength="89.4277" x="112" y="135.292">Desconocido</text></g><g id="elem_rombo"><polygon fill="#F1F1F1" points="156.5,220.2969,168.5,232.2969,156.5,244.2969,144.5,232.2969,156.5,220.2969" style="stroke:#181818;stroke-width:0.5;"/></g><g id="CreadorDeContenidoYViewer.ViewerEnProceso"><rect fill="#F1F1F1" height="50" rx="12.5" ry="12.5" style="stroke:#181818;stroke-width:0.5;" width="140.5518" x="19" y="297.2969"/><line style="stroke:#181818;stroke-width:0.5;" x1="19" x2="159.5518" y1="323.5938" y2="323.5938"/><text fill="#000000" font-family="sans-serif" font-size="14" lengthAdjust="spacing" textLength="120.5518" x="29" y="315.292">ViewerEnProceso</text></g><g id="CreadorDeContenidoYViewer.EnProceso"><rect fill="#F1F1F1" height="50" rx="12.5" ry="12.5" style="stroke:#181818;stroke-width:0.5;" width="92.6523" x="186" y="297.2969"/><line style="stroke:#181818;stroke-width:0.5;" x1="186" x2="278.6523" y1="323.5938" y2="323.5938"/><text fill="#000000" font-family="sans-serif" font-size="14" lengthAdjust="spacing" textLength="72.6523" x="196" y="315.292">EnProceso</text></g><g id="CreadorDeContenidoYViewer.Viewer"><rect fill="#F1F1F1" height="50" rx="12.5" ry="12.5" style="stroke:#181818;stroke-width:0.5;" width="67.8994" x="55.5" y="400.2969"/><line style="stroke:#181818;stroke-width:0.5;" x1="55.5" x2="123.3994" y1="426.5938" y2="426.5938"/><text fill="#000000" font-family="sans-serif" font-size="14" lengthAdjust="spacing" textLength="47.8994" x="65.5" y="418.292">Viewer</text></g><g id="CreadorDeContenidoYViewer.CreadorDeContenido"><rect fill="#F1F1F1" height="50" rx="12.5" ry="12.5" style="stroke:#181818;stroke-width:0.5;" width="166.8564" x="149" y="400.2969"/><line style="stroke:#181818;stroke-width:0.5;" x1="149" x2="315.8564" y1="426.5938" y2="426.5938"/><text fill="#000000" font-family="sans-serif" font-size="14" lengthAdjust="spacing" textLength="146.8564" x="159" y="418.292">CreadorDeContenido</text></g><ellipse cx="157.5" cy="514.2969" fill="none" rx="11" ry="11" style="stroke:#222222;stroke-width:1.0;"/><ellipse cx="157.5" cy="514.2969" fill="#222222" rx="6" ry="6" style="stroke:#222222;stroke-width:1.0;"/><!--link *start*CreadorDeContenidoYViewer to Desconocido--><g id="link_*start*CreadorDeContenidoYViewer_Desconocido"><path d="M156.5,64.4969 C156.5,76.9769 156.5,93.7169 156.5,111.2269 " fill="none" id="*start*CreadorDeContenidoYViewer-to-Desconocido" style="stroke:#181818;stroke-width:1.0;"/><polygon fill="#181818" points="156.5,117.2269,160.5,108.2269,156.5,112.2269,152.5,108.2269,156.5,117.2269" style="stroke:#181818;stroke-width:1.0;"/><text fill="#000000" font-family="sans-serif" font-size="13" lengthAdjust="spacing" textLength="83.6558" x="157.5" y="95.3638">Sin Registrar</text></g><!--link Desconocido to rombo--><g id="link_Desconocido_rombo"><path d="M156.5,167.3469 C156.5,184.4469 156.5,200.6369 156.5,213.8869 " fill="none" id="Desconocido-to-rombo" style="stroke:#181818;stroke-width:1.0;"/><polygon fill="#181818" points="156.5,219.8869,160.5,210.8869,156.5,214.8869,152.5,210.8869,156.5,219.8869" style="stroke:#181818;stroke-width:1.0;"/><text fill="#000000" font-family="sans-serif" font-size="13" lengthAdjust="spacing" textLength="172.5483" x="157.5" y="198.3638">Si se registra como viewer</text></g><!--link rombo to ViewerEnProceso--><g id="link_rombo_ViewerEnProceso"><path d="M151.68,239.6269 C142.68,251.4469 126.5155,272.6837 111.6555,292.1937 " fill="none" id="rombo-to-ViewerEnProceso" style="stroke:#181818;stroke-width:1.0;"/><polygon fill="#181818" points="108.02,296.9669,116.6554,292.2308,111.0496,292.9892,110.2912,287.3835,108.02,296.9669" style="stroke:#181818;stroke-width:1.0;"/><text fill="#000000" font-family="sans-serif" font-size="13" lengthAdjust="spacing" textLength="10.3848" x="134.5" y="275.3638">s&#237;</text></g><!--link rombo to EnProceso--><g id="link_rombo_EnProceso"><path d="M161.72,239.3469 C171.85,251.0769 190.7389,272.9354 207.7389,292.6254 " fill="none" id="rombo-to-EnProceso" style="stroke:#181818;stroke-width:1.0;"/><polygon fill="#181818" points="211.66,297.1669,208.8061,287.7406,208.3925,293.3823,202.7507,292.9687,211.66,297.1669" style="stroke:#181818;stroke-width:1.0;"/><text fill="#000000" font-family="sans-serif" font-size="13" lengthAdjust="spacing" textLength="16.1929" x="195.5" y="275.3638">no</text></g><!--link ViewerEnProceso to Viewer--><g id="link_ViewerEnProceso_Viewer"><path d="M79.31,347.5369 C76.01,358.1369 73.63,370.7669 75.5,382.2969 C76.46,388.2169 76.2991,388.7163 78.1591,394.4863 " fill="none" id="ViewerEnProceso-to-Viewer" style="stroke:#181818;stroke-width:1.0;"/><polygon fill="#181818" points="80,400.1969,81.0458,390.4037,78.466,395.438,73.4316,392.8582,80,400.1969" style="stroke:#181818;stroke-width:1.0;"/><text fill="#000000" font-family="sans-serif" font-size="13" lengthAdjust="spacing" textLength="141.4829" x="76.5" y="378.3638">Si acepta condiciones</text></g><!--link EnProceso to CreadorDeContenido--><g id="link_EnProceso_CreadorDeContenido"><path d="M232.5,347.4869 C232.5,363.3669 232.5,378.0469 232.5,393.9569 " fill="none" id="EnProceso-to-CreadorDeContenido" style="stroke:#181818;stroke-width:1.0;"/><polygon fill="#181818" points="232.5,399.9569,236.5,390.9569,232.5,394.9569,228.5,390.9569,232.5,399.9569" style="stroke:#181818;stroke-width:1.0;"/><text fill="#000000" font-family="sans-serif" font-size="13" lengthAdjust="spacing" textLength="306.3188" x="233.5" y="378.3638">Acepta condiciones y completa requerimientos</text></g><!--link Viewer to *end*CreadorDeContenidoYViewer--><g id="link_Viewer_*end*CreadorDeContenidoYViewer"><path d="M98.74,450.5169 C103.79,461.8369 110.81,475.0369 119.5,485.2969 C127.66,494.9269 134.5996,500.019 142.9496,505.009 " fill="none" id="Viewer-to-*end*CreadorDeContenidoYViewer" style="stroke:#181818;stroke-width:1.0;"/><polygon fill="#181818" points="148.1,508.0869,142.4263,500.0364,143.808,505.522,138.3225,506.9036,148.1,508.0869" style="stroke:#181818;stroke-width:1.0;"/><text fill="#000000" font-family="sans-serif" font-size="13" lengthAdjust="spacing" textLength="77.5239" x="120.5" y="481.3638">Fin Registro</text></g><!--link CreadorDeContenido to *end*CreadorDeContenidoYViewer--><g id="link_CreadorDeContenido_*end*CreadorDeContenidoYViewer"><path d="M221.78,450.3269 C215.94,461.7269 207.98,475.0669 198.5,485.2969 C189.36,495.1569 181.3916,500.495 172.4516,505.435 " fill="none" id="CreadorDeContenido-to-*end*CreadorDeContenidoYViewer" style="stroke:#181818;stroke-width:1.0;"/><polygon fill="#181818" points="167.2,508.3369,177.012,507.4851,171.5763,505.9186,173.1428,500.483,167.2,508.3369" style="stroke:#181818;stroke-width:1.0;"/><text fill="#000000" font-family="sans-serif" font-size="13" lengthAdjust="spacing" textLength="77.5239" x="212.5" y="481.3638">Fin Registro</text></g><!--SRC=[TP1TYi9048JVFKK_2ruWI43C-YmA2uliGtRIQ8FfZjsZYuX7yXHxiUr9XFWBypHLNrNH5ik8C5KiAz42fy8HcIhv-YJyHONJ060r_8RHA8S2BGXBS1aoM1B30jTaKKjrbpzhmrJg7u7nE6o40kRvm9LRD4LrdXG2viGr1eBK0eUssQ7EbEpTc0-UgmIq1DhVvSvngx6aoaUcp-bwou1DJ9LSKI1XD8VkxSzdSNJonC4n3M-swD-AkpqgrOGSnVeTRLuwP0Qp_d3Y-ekIDzxpFm00]--></g></svg>