<svg xmlns="http://www.w3.org/2000/svg" xmlns:xlink="http://www.w3.org/1999/xlink" contentStyleType="text/css" height="286px" preserveAspectRatio="none" style="width:631px;height:286px;background:#FFFFFF;" version="1.1" viewBox="0 0 631 286" width="631px" zoomAndPan="magnify"><defs/><g><path d="M19.5,7 L605.5,7 A12.5,12.5 0 0 1 618,19.5 L618,33.2969 L7,33.2969 L7,19.5 A12.5,12.5 0 0 1 19.5,7 " fill="#F1F1F1" style="stroke:#F1F1F1;stroke-width:1.0;"/><rect fill="none" height="273.2969" rx="12.5" ry="12.5" style="stroke:#181818;stroke-width:0.5;" width="611" x="7" y="7"/><line style="stroke:#181818;stroke-width:0.5;" x1="7" x2="618" y1="33.2969" y2="33.2969"/><text fill="#000000" font-family="sans-serif" font-size="14" lengthAdjust="spacing" textLength="112.2188" x="256.3906" y="24.9951">Recomendacion</text><ellipse cx="96" cy="54.2969" fill="#222222" rx="10" ry="10" style="stroke:#222222;stroke-width:1.0;"/><g id="Recomendacion.SinRecomendacion"><rect fill="#F1F1F1" height="50" rx="12.5" ry="12.5" style="stroke:#181818;stroke-width:0.5;" width="153.8682" x="19" y="117.2969"/><line style="stroke:#181818;stroke-width:0.5;" x1="19" x2="172.8682" y1="143.5938" y2="143.5938"/><text fill="#000000" font-family="sans-serif" font-size="14" lengthAdjust="spacing" textLength="133.8682" x="29" y="135.292">SinRecomendacion</text></g><g id="elem_rombo"><polygon fill="#F1F1F1" points="302,130.2969,314,142.2969,302,154.2969,290,142.2969,302,130.2969" style="stroke:#181818;stroke-width:0.5;"/></g><g id="Recomendacion.Recomienda"><rect fill="#F1F1F1" height="50" rx="12.5" ry="12.5" style="stroke:#181818;stroke-width:0.5;" width="107.083" x="343.5" y="117.2969"/><line style="stroke:#181818;stroke-width:0.5;" x1="343.5" x2="450.583" y1="143.5938" y2="143.5938"/><text fill="#000000" font-family="sans-serif" font-size="14" lengthAdjust="spacing" textLength="87.083" x="353.5" y="135.292">Recomienda</text></g><g id="Recomendacion.NoHayDatos"><rect fill="#F1F1F1" height="50" rx="12.5" ry="12.5" style="stroke:#181818;stroke-width:0.5;" width="107.1377" x="216.5" y="220.2969"/><line style="stroke:#181818;stroke-width:0.5;" x1="216.5" x2="323.6377" y1="246.5938" y2="246.5938"/><text fill="#000000" font-family="sans-serif" font-size="14" lengthAdjust="spacing" textLength="87.1377" x="226.5" y="238.292">NoHayDatos</text></g><g id="Recomendacion.Categoria"><rect fill="#F1F1F1" height="50" rx="12.5" ry="12.5" style="stroke:#181818;stroke-width:0.5;" width="88.1338" x="353" y="220.2969"/><line style="stroke:#181818;stroke-width:0.5;" x1="353" x2="441.1338" y1="246.5938" y2="246.5938"/><text fill="#000000" font-family="sans-serif" font-size="14" lengthAdjust="spacing" textLength="68.1338" x="363" y="238.292">Categoria</text></g><ellipse cx="599" cy="245.2969" fill="none" rx="11" ry="11" style="stroke:#222222;stroke-width:1.0;"/><ellipse cx="599" cy="245.2969" fill="#222222" rx="6" ry="6" style="stroke:#222222;stroke-width:1.0;"/><!--link *start*Recomendacion to SinRecomendacion--><g id="link_*start*Recomendacion_SinRecomendacion"><path d="M96,64.4969 C96,76.9769 96,93.7169 96,111.2269 " fill="none" id="*start*Recomendacion-to-SinRecomendacion" style="stroke:#181818;stroke-width:1.0;"/><polygon fill="#181818" points="96,117.2269,100,108.2269,96,112.2269,92,108.2269,96,117.2269" style="stroke:#181818;stroke-width:1.0;"/><text fill="#000000" font-family="sans-serif" font-size="13" lengthAdjust="spacing" textLength="228.3633" x="97" y="95.3638">Usuario registrado sin subscripci&#243;n</text></g><!--link SinRecomendacion to rombo--><g id="link_SinRecomendacion_rombo"><path d="M173.29,142.2969 C216.9,142.2969 261.09,142.2969 283.76,142.2969 " fill="none" id="SinRecomendacion-to-rombo" style="stroke:#181818;stroke-width:1.0;"/><polygon fill="#181818" points="289.76,142.2969,280.76,138.2969,284.76,142.2969,280.76,146.2969,289.76,142.2969" style="stroke:#181818;stroke-width:1.0;"/><text fill="#000000" font-family="sans-serif" font-size="13" lengthAdjust="spacing" textLength="97.2905" x="183" y="135.3638">Si se subscribe</text></g><!--link rombo to Recomienda--><g id="link_rombo_Recomienda"><path d="M314.03,142.2969 C321.72,142.2969 326.29,142.2969 337.31,142.2969 " fill="none" id="rombo-to-Recomienda" style="stroke:#181818;stroke-width:1.0;"/><polygon fill="#181818" points="343.31,142.2969,334.31,138.2969,338.31,142.2969,334.31,146.2969,343.31,142.2969" style="stroke:#181818;stroke-width:1.0;"/><text fill="#000000" font-family="sans-serif" font-size="13" lengthAdjust="spacing" textLength="10.3848" x="323.75" y="135.3638">si</text></g><!--link rombo to NoHayDatos--><g id="link_rombo_NoHayDatos"><path d="M299.27,151.9069 C294.53,166.8869 286.4014,192.5268 279.4314,214.5368 " fill="none" id="rombo-to-NoHayDatos" style="stroke:#181818;stroke-width:1.0;"/><polygon fill="#181818" points="277.62,220.2569,284.1504,212.8844,279.1295,215.4902,276.5237,210.4692,277.62,220.2569" style="stroke:#181818;stroke-width:1.0;"/><text fill="#000000" font-family="sans-serif" font-size="13" lengthAdjust="spacing" textLength="16.1929" x="288" y="198.3638">no</text></g><!--link Recomienda to Categoria--><g id="link_Recomienda_Categoria"><path d="M397,167.4869 C397,183.3669 397,198.0469 397,213.9569 " fill="none" id="Recomienda-to-Categoria" style="stroke:#181818;stroke-width:1.0;"/><polygon fill="#181818" points="397,219.9569,401,210.9569,397,214.9569,393,210.9569,397,219.9569" style="stroke:#181818;stroke-width:1.0;"/><text fill="#000000" font-family="sans-serif" font-size="13" lengthAdjust="spacing" textLength="37.8003" x="398" y="198.3638">Sobre</text></g><!--link NoHayDatos to SinRecomendacion--><g id="link_NoHayDatos_SinRecomendacion"><path d="M228.36,220.1269 C200.92,204.1969 170.309,186.4293 142.869,170.4993 " fill="none" id="NoHayDatos-to-SinRecomendacion" style="stroke:#181818;stroke-width:1.0;"/><polygon fill="#181818" points="137.68,167.4869,143.4552,175.4648,142.0041,169.9972,147.4717,168.5462,137.68,167.4869" style="stroke:#181818;stroke-width:1.0;"/></g><!--link Categoria to *end*Recomendacion--><g id="link_Categoria_*end*Recomendacion"><path d="M441.33,245.2969 C488.71,245.2969 554.7,245.2969 581.99,245.2969 " fill="none" id="Categoria-to-*end*Recomendacion" style="stroke:#181818;stroke-width:1.0;"/><polygon fill="#181818" points="587.99,245.2969,578.99,241.2969,582.99,245.2969,578.99,249.2969,587.99,245.2969" style="stroke:#181818;stroke-width:1.0;"/><text fill="#000000" font-family="sans-serif" font-size="13" lengthAdjust="spacing" textLength="127.6641" x="451" y="238.3638">Fin Recomendacion</text></g><!--SRC=[RP0n3i8m34Ntdi8pKYzGLLr0Y8a1n8GOajGg7eYHdGu8SIgEmCLmYW1586Nxpy_-qUGImWO3dp3sBX17k5O0-za1whg3BSKoR62denDY41n8axYUGIc2Zbw3q3dGunxDO4ydkV39CxHjE385xBhAaXzjBRRiHJQMWk9RwD7u2QPCGsleXrIoSCqhTrcun5g6aQjoD1UQsqa32xcyXxrWAVZNELk-OzEb-NiQM5hjahmz0G00]--></g></svg>